<?xml version="1.0" encoding="iso-8859-1"?>
<!-- Generator: Adobe Illustrator 19.0.0, SVG Export Plug-In . SVG Version: 6.00 Build 0)  -->
<svg version="1.1" id="Capa_1" xmlns="http://www.w3.org/2000/svg" xmlns:xlink="http://www.w3.org/1999/xlink" x="0px" y="0px"
	 viewBox="0 0 469.333 469.333" style="enable-background:new 0 0 469.333 469.333;" xml:space="preserve">
<g>
	<path style="fill:#0F3860;" d="M120.873,469.333H92.461c-9.183,0-17.335-5.876-20.239-14.587l-16.471-49.413h101.831
		l-16.471,49.413C138.207,463.457,130.055,469.333,120.873,469.333z"/>
	<path style="fill:#0F3860;" d="M376.873,469.333h-28.412c-9.182,0-17.335-5.876-20.239-14.587l-16.471-49.413h101.831
		l-16.471,49.413C394.207,463.457,386.055,469.333,376.873,469.333z"/>
</g>
<g>
	<path style="fill:#A6B7C6;" d="M192,426.667H64c-11.782,0-21.333-9.551-21.333-21.333l0,0v-64.827
		c0-12.961,5.892-25.22,16.013-33.317l61.686-49.349c18.309-14.647,28.968-36.824,28.968-60.271v-43.2
		c0-29.235,16.518-55.962,42.667-69.036L192,426.667z"/>
	<path style="fill:#A6B7C6;" d="M277.333,426.667h128c11.782,0,21.333-9.551,21.333-21.333v0v-64.827
		c0-12.961-5.892-25.22-16.013-33.317l-61.686-49.349C330.658,243.193,320,221.017,320,197.57v-43.2
		c0-29.235-16.518-55.962-42.667-69.036L277.333,426.667z"/>
</g>
<g>
	<path style="fill:#8CA2B6;" d="M309.333,151.632c-5.891,0-10.667,4.776-10.667,10.667v35.271
		c-0.071,29.944,13.547,58.279,36.974,76.93l61.686,49.348c5.073,4.039,8.022,10.175,8.007,16.659v13.008
		c0,5.891,4.776,10.667,10.667,10.667c5.891,0,10.667-4.776,10.667-10.667v-13.008c0-12.961-5.892-25.22-16.013-33.317l0,0l0,0
		l-0.002-0.001l-0.002-0.001l-0.001-0.001h0l-0.001-0.001l-0.002-0.002l-0.003-0.002l0,0l-0.018-0.014l-0.001-0.001l-0.006-0.005
		l-0.001-0.001l-0.025-0.02l-0.002-0.002l-0.01-0.008l-0.009-0.007l-0.009-0.007l-0.006-0.005l-0.003-0.002l-0.007-0.005
		l-0.002-0.001l-0.01-0.008l-0.003-0.002l-0.043-0.035l-0.004-0.003l-0.005-0.004l-0.004-0.003l-0.01-0.008l-0.013-0.01
		l-0.077-0.061l-0.007-0.006l-0.017-0.014l-0.043-0.034l-0.019-0.015l-0.012-0.01l-0.007-0.005l-0.007-0.006l-0.027-0.021
		l-0.007-0.005l-0.047-0.037l-0.001-0.001l-0.09-0.072l-0.042-0.033l-0.019-0.015l-0.023-0.018l-0.014-0.012l-0.018-0.014
		l-0.125-0.1l-0.002-0.002l-0.248-0.199l-0.015-0.012l-0.109-0.088l-0.001-0.001l-0.042-0.034l-0.016-0.012l-0.076-0.061
		l-0.009-0.007l-0.233-0.187l-0.032-0.026l-0.499-0.4l-0.004-0.003l-0.074-0.059l-0.063-0.051l-0.038-0.03l-0.1-0.08l-0.044-0.035
		l-0.117-0.094l-0.021-0.017l-0.009-0.007l-0.172-0.138l-0.032-0.026l-1.258-1.006l-0.012-0.009l-1.414-1.132l-0.007-0.005
		l-0.048-0.039l-0.004-0.003l-0.093-0.074l-0.02-0.016l-0.044-0.035l-0.013-0.01l-0.087-0.07l-0.041-0.033l-0.003-0.002
		l-0.122-0.097l-0.038-0.03l-0.012-0.01l-0.041-0.033l-0.085-0.068l-0.09-0.072l-0.133-0.106l-0.018-0.014
		c-0.089-0.071-0.18-0.144-0.271-0.216l-0.41-0.328c-0.036-0.029-0.073-0.058-0.109-0.088l-0.013-0.01l-0.162-0.13l-0.186-0.149
		l-0.1-0.08l-0.001-0.001l-0.072-0.058l-0.169-0.135l-0.016-0.013l-0.292-0.234l-0.125-0.1l-0.138-0.11l-0.098-0.079l-0.012-0.01
		c-0.047-0.038-0.093-0.075-0.141-0.113l-0.514-0.411l-0.082-0.066l-0.025-0.02c-0.079-0.063-0.16-0.128-0.24-0.192l-0.176-0.14
		l-0.02-0.016l-0.055-0.044l-0.009-0.008l-0.048-0.038l-0.041-0.033l-0.478-0.382l-0.04-0.032l-0.013-0.01
		c-0.09-0.072-0.177-0.142-0.268-0.214l-0.036-0.029l-0.237-0.189l-0.595-0.476l-0.081-0.065l-0.121-0.097l-0.192-0.153
		l-0.315-0.252l-0.046-0.036l-0.031-0.025l-0.031-0.025l-0.024-0.019l-0.067-0.054l-0.009-0.007
		c-0.102-0.082-0.202-0.162-0.305-0.244l-0.04-0.032l-0.036-0.029l-0.113-0.09l-0.051-0.041l-0.015-0.012l-0.065-0.052l-0.083-0.066
		l-0.076-0.06l-0.393-0.314l-0.167-0.134l-0.018-0.014l-0.049-0.039l-0.035-0.028l-0.054-0.043l-0.015-0.012
		c-0.087-0.069-0.173-0.138-0.26-0.208l-0.068-0.054l-0.019-0.015l-0.616-0.493l-0.01-0.008l-0.358-0.286
		c-0.309-0.247-0.62-0.496-0.935-0.748l-0.126-0.101c-0.229-0.183-0.457-0.366-0.689-0.551l-0.037-0.03l-0.11-0.088l-0.225-0.18
		l-0.051-0.04l-0.556-0.445l-0.044-0.035l-0.044-0.035l-0.231-0.185l-0.237-0.189l-0.151-0.121l-0.046-0.037l-0.045-0.036
		l-0.046-0.037l-0.118-0.094l-0.066-0.053c-0.074-0.059-0.148-0.119-0.223-0.178l-0.033-0.027l-0.097-0.078l-0.242-0.193
		l-0.147-0.118l-0.042-0.034l-0.028-0.023l-0.117-0.094l-0.058-0.046l-0.377-0.302l-0.076-0.061l-0.053-0.043l-0.063-0.05
		l-0.605-0.484l-0.019-0.015l-1.484-1.187l-0.066-0.053l-0.217-0.174l-0.044-0.035l-0.068-0.055l-0.045-0.036l-0.327-0.262
		l-0.016-0.013l-0.082-0.066l-0.006-0.005l-0.603-0.482l-0.031-0.025l-0.166-0.133l-0.045-0.036l-0.602-0.482l-0.045-0.036
		l-0.015-0.012l-0.056-0.045l-0.096-0.077c-0.06-0.047-0.122-0.098-0.182-0.145l-0.549-0.439l-0.006-0.004l-0.08-0.064l-0.011-0.009
		l-0.143-0.114l-0.046-0.037l-0.762-0.609l-0.047-0.038l-0.339-0.271c-0.12-0.096-0.24-0.192-0.359-0.288l-0.013-0.01l-0.232-0.186
		l-0.466-0.372c-0.133-0.107-0.266-0.213-0.4-0.32l-0.13-0.104c-0.079-0.063-0.158-0.126-0.237-0.19l-0.028-0.023l-0.12-0.096
		l-0.057-0.045l-0.104-0.083l-0.34-0.272l-0.07-0.056l-0.041-0.033l-0.027-0.022l-0.152-0.122l-0.036-0.029l-0.619-0.495
		l-0.092-0.074l-0.107-0.086l-0.288-0.23l-0.091-0.073l-0.013-0.011l-0.132-0.105l-0.241-0.193l-0.045-0.036l-0.225-0.18
		l-0.094-0.075l-0.053-0.043l-0.051-0.041l-0.041-0.033l-0.026-0.021l-0.335-0.268l-0.106-0.085l-0.227-0.181l-0.001-0.001
		l-3.67-2.936l-0.021-0.017l-0.042-0.034c-0.083-0.067-0.168-0.134-0.251-0.201l-0.575-0.46l-0.02-0.016l-0.104-0.083l-0.016-0.013
		l-0.08-0.064l-0.04-0.032l-0.007-0.005c-0.053-0.043-0.107-0.086-0.16-0.128l-0.277-0.221l-0.066-0.053l-1.492-1.194l-0.04-0.032
		l-1.62-1.296l-0.087-0.07l-0.54-0.432l-0.048-0.038l-0.077-0.062l-0.01-0.008l-0.66-0.528l-0.057-0.046l-0.12-0.096l-0.111-0.089
		l-0.161-0.129l-0.05-0.04l-0.088-0.07c-0.099-0.079-0.198-0.159-0.297-0.237l-0.01-0.008l-0.055-0.044l-0.058-0.046l-0.121-0.097
		l-0.126-0.101l-0.009-0.008l-0.172-0.137c-0.049-0.04-0.099-0.079-0.148-0.118l-0.014-0.011l-0.089-0.071l-0.059-0.047
		l-0.071-0.057l-0.1-0.08l-0.056-0.045l-0.092-0.074l-0.033-0.026l-0.142-0.113l-0.005-0.003l-0.057-0.046
		c-0.042-0.034-0.086-0.069-0.129-0.103l-0.018-0.015l-0.103-0.083l-0.049-0.04l-0.119-0.095l-0.224-0.179l-0.052-0.042
		l-0.317-0.254l-0.019-0.015l-0.936-0.749l-0.007-0.006l-0.066-0.053l-0.108-0.086l-1.461-1.169l-0.01-0.008l-0.061-0.048
		l-0.025-0.02l-0.048-0.039l-0.035-0.028l-0.022-0.018l-0.061-0.049l-0.016-0.012l-0.041-0.033l-0.265-0.212
		c-0.118-0.095-0.234-0.187-0.351-0.281l-0.253-0.203c-0.101-0.081-0.202-0.162-0.302-0.242l-0.033-0.026l-0.055-0.044l-0.093-0.074
		l-0.05-0.04l-0.035-0.028l-0.068-0.054l-0.291-0.233l-0.024-0.02l-0.019-0.015l-0.068-0.055l-0.161-0.129l-0.018-0.014l-0.12-0.096
		l-0.024-0.019l-0.324-0.259l-0.053-0.042l-0.09-0.072l-0.015-0.012l-0.15-0.12l-0.044-0.035l-0.059-0.047l-0.57-0.456l-0.012-0.01
		l-0.28-0.224l-0.042-0.034l-1.825-1.46l-0.022-0.018l-0.029-0.023c-0.061-0.048-0.121-0.097-0.181-0.145l-0.036-0.029l-0.014-0.011
		l-0.045-0.036l-0.077-0.062l-0.267-0.214l-0.017-0.014l-0.433-0.346l-0.04-0.032l-0.046-0.037l-0.01-0.008l-0.155-0.124
		l-0.004-0.003l-0.103-0.083l-0.005-0.004l-0.083-0.066l-0.028-0.022l-0.035-0.028l-0.051-0.04l-0.106-0.085l-0.086-0.068
		l-0.017-0.014l-0.065-0.052l-0.039-0.031l-0.137-0.11l-0.018-0.014l-0.137-0.11l-0.101-0.08l-0.001-0.001l-0.22-0.176l-0.024-0.019
		l-0.066-0.053l-0.018-0.015l-0.703-0.562l-0.006-0.004l-0.294-0.235l-0.017-0.013l-3.113-2.49
		C330.658,243.193,320,221.017,320,197.57v-35.271C320,156.408,315.224,151.632,309.333,151.632L309.333,151.632z"/>
	<path style="fill:#8CA2B6;" d="M160,151.632c-5.891,0-10.667,4.776-10.667,10.667v35.271c0,23.447-10.658,45.624-28.968,60.271
		l-3.113,2.49l-0.017,0.013l-0.294,0.235l-0.006,0.004l-0.703,0.562l-0.018,0.015l-0.066,0.053l-0.024,0.019l-0.22,0.176
		l-0.001,0.001l-0.101,0.08l-0.137,0.11l-0.018,0.014l-0.137,0.11l-0.039,0.031l-0.065,0.052l-0.017,0.014l-0.086,0.068
		l-0.106,0.085l-0.051,0.04l-0.035,0.028l-0.028,0.022l-0.083,0.066l-0.005,0.004l-0.103,0.083l-0.004,0.003l-0.155,0.124
		l-0.01,0.008l-0.046,0.037l-0.04,0.032l-0.433,0.346l-0.017,0.014l-0.267,0.214l-0.077,0.062l-0.045,0.036l-0.014,0.011
		l-0.036,0.029c-0.06,0.048-0.12,0.096-0.181,0.145l-0.029,0.023l-0.022,0.018l-1.825,1.46l-0.042,0.034l-0.28,0.224l-0.012,0.01
		l-0.57,0.456l-0.059,0.047l-0.044,0.035l-0.15,0.12l-0.015,0.012l-0.09,0.072l-0.053,0.042l-0.324,0.259l-0.024,0.019l-0.12,0.096
		l-0.018,0.014l-0.161,0.129l-0.068,0.055l-0.019,0.015l-0.024,0.02l-0.291,0.233l-0.068,0.054l-0.035,0.028l-0.05,0.04
		l-0.093,0.074l-0.055,0.044l-0.033,0.026c-0.1,0.08-0.201,0.161-0.302,0.242l-0.253,0.203c-0.118,0.094-0.233,0.186-0.351,0.281
		l-0.265,0.212l-0.041,0.033l-0.016,0.012l-0.061,0.049l-0.022,0.018l-0.035,0.028l-0.048,0.039l-0.025,0.02l-0.061,0.048
		l-0.01,0.008l-1.461,1.169l-0.108,0.086l-0.066,0.053l-0.007,0.006l-0.936,0.749l-0.019,0.015l-0.317,0.254l-0.052,0.042
		l-0.224,0.179l-0.119,0.095l-0.049,0.04l-0.103,0.083l-0.018,0.015c-0.042,0.034-0.086,0.069-0.129,0.103l-0.057,0.046
		l-0.005,0.003l-0.142,0.113l-0.033,0.026l-0.092,0.074l-0.056,0.045l-0.1,0.08l-0.071,0.057l-0.059,0.047l-0.089,0.071
		l-0.014,0.011c-0.049,0.04-0.099,0.079-0.148,0.118l-0.172,0.137l-0.009,0.008l-0.126,0.101l-0.121,0.097l-0.058,0.046
		l-0.055,0.044l-0.01,0.008c-0.099,0.079-0.198,0.158-0.297,0.237l-0.088,0.07l-0.05,0.04l-0.161,0.129l-0.111,0.089l-0.12,0.096
		l-0.057,0.046l-0.66,0.528l-0.01,0.008l-0.077,0.062l-0.048,0.038l-0.54,0.432l-0.087,0.07l-1.62,1.296l-0.04,0.032l-1.492,1.194
		l-0.066,0.053l-0.277,0.221c-0.053,0.043-0.107,0.086-0.16,0.128l-0.007,0.005l-0.04,0.032l-0.08,0.064l-0.016,0.013l-0.104,0.083
		l-0.02,0.016l-0.575,0.46c-0.083,0.067-0.168,0.134-0.251,0.201l-0.042,0.034l-0.021,0.017l-3.67,2.936l-0.001,0.001l-0.227,0.181
		l-0.106,0.085l-0.335,0.268l-0.026,0.021l-0.041,0.033l-0.051,0.041l-0.053,0.043l-0.094,0.075l-0.225,0.18l-0.045,0.036
		l-0.241,0.193l-0.132,0.105l-0.013,0.011l-0.091,0.073l-0.288,0.23l-0.107,0.086l-0.092,0.074l-0.619,0.495l-0.036,0.029
		l-0.152,0.122l-0.027,0.022l-0.041,0.033l-0.07,0.056l-0.34,0.272l-0.104,0.083l-0.057,0.045l-0.12,0.096l-0.028,0.023
		c-0.079,0.063-0.158,0.126-0.237,0.19l-0.13,0.104c-0.133,0.107-0.266,0.213-0.4,0.32l-0.465,0.372l-0.232,0.186l-0.013,0.01
		c-0.12,0.096-0.24,0.192-0.359,0.288l-0.339,0.271l-0.047,0.038l-0.762,0.609l-0.046,0.037l-0.143,0.114l-0.011,0.009l-0.08,0.064
		l-0.006,0.004l-0.549,0.439c-0.06,0.048-0.122,0.098-0.182,0.145l-0.096,0.077l-0.056,0.045l-0.015,0.012l-0.045,0.036
		l-0.602,0.482l-0.045,0.036l-0.166,0.133l-0.031,0.025l-0.603,0.482l-0.006,0.005l-0.082,0.066l-0.016,0.013l-0.327,0.262
		l-0.045,0.036l-0.068,0.055l-0.044,0.035l-0.217,0.174l-0.066,0.053l-1.484,1.187l-0.019,0.015l-0.605,0.484l-0.063,0.05
		l-0.053,0.043l-0.076,0.061l-0.377,0.302l-0.058,0.046l-0.117,0.094l-0.028,0.023l-0.042,0.034l-0.147,0.118l-0.242,0.193
		l-0.097,0.078l-0.033,0.027c-0.074,0.059-0.149,0.119-0.223,0.178l-0.066,0.053l-0.118,0.094l-0.046,0.037l-0.045,0.036
		l-0.046,0.037l-0.151,0.121l-0.237,0.189l-0.231,0.185l-0.044,0.035l-0.044,0.035l-0.556,0.445l-0.051,0.04l-0.225,0.18
		l-0.11,0.088l-0.037,0.03c-0.232,0.185-0.46,0.368-0.689,0.551l-0.126,0.101c-0.314,0.251-0.626,0.501-0.935,0.748l-0.358,0.286
		l-0.01,0.008l-0.616,0.493l-0.019,0.015l-0.068,0.054c-0.087,0.07-0.174,0.139-0.26,0.208l-0.015,0.012l-0.054,0.043l-0.035,0.028
		l-0.049,0.039l-0.018,0.014l-0.167,0.134l-0.393,0.314l-0.076,0.06l-0.083,0.066l-0.065,0.052l-0.015,0.012l-0.051,0.041
		l-0.113,0.09l-0.036,0.029l-0.04,0.032c-0.103,0.082-0.203,0.163-0.305,0.244l-0.009,0.007l-0.067,0.054l-0.024,0.019l-0.031,0.025
		l-0.031,0.025l-0.046,0.036l-0.315,0.252l-0.192,0.153l-0.121,0.097l-0.081,0.065l-0.595,0.476l-0.237,0.189l-0.036,0.029
		c-0.091,0.073-0.178,0.142-0.268,0.214l-0.013,0.01l-0.04,0.032l-0.478,0.382l-0.041,0.033l-0.048,0.038l-0.009,0.008l-0.055,0.044
		l-0.02,0.016l-0.176,0.14c-0.08,0.064-0.161,0.129-0.24,0.192l-0.025,0.02l-0.082,0.066l-0.514,0.411
		c-0.048,0.038-0.094,0.075-0.141,0.113l-0.012,0.01l-0.098,0.079l-0.138,0.11l-0.125,0.1l-0.292,0.234l-0.016,0.013l-0.169,0.135
		l-0.072,0.058l-0.001,0.001l-0.1,0.08l-0.186,0.149l-0.162,0.13l-0.013,0.01c-0.036,0.029-0.073,0.059-0.109,0.088l-0.41,0.328
		c-0.09,0.072-0.182,0.145-0.271,0.216l-0.018,0.014l-0.133,0.106l-0.09,0.072l-0.085,0.068l-0.041,0.033l-0.012,0.01l-0.038,0.03
		l-0.122,0.097l-0.003,0.002l-0.041,0.033l-0.087,0.07l-0.013,0.01l-0.044,0.035l-0.02,0.016l-0.093,0.074l-0.004,0.003
		l-0.048,0.039l-0.007,0.005l-1.414,1.132l-0.012,0.009l-1.258,1.006l-0.032,0.026l-0.172,0.138l-0.009,0.007l-0.021,0.017
		l-0.117,0.094l-0.044,0.035l-0.1,0.08l-0.038,0.03l-0.063,0.051l-0.074,0.059l-0.004,0.003l-0.499,0.4l-0.032,0.026L60,306.133
		l-0.009,0.007l-0.076,0.061l-0.016,0.012l-0.042,0.034l-0.001,0.001l-0.109,0.088l-0.015,0.012l-0.248,0.199l-0.002,0.002
		l-0.125,0.1l-0.018,0.014l-0.014,0.012l-0.023,0.018l-0.019,0.015l-0.042,0.033l-0.09,0.072l-0.001,0.001l-0.047,0.037
		l-0.007,0.005l-0.027,0.021l-0.007,0.006l-0.007,0.005l-0.012,0.01l-0.019,0.015l-0.043,0.034l-0.017,0.014l-0.007,0.006
		l-0.077,0.061l-0.013,0.01l-0.01,0.008l-0.004,0.003l-0.005,0.004l-0.004,0.003l-0.043,0.035l-0.003,0.002l-0.01,0.008
		l-0.002,0.001l-0.007,0.005l-0.003,0.002l-0.006,0.005l-0.009,0.007l-0.009,0.007l-0.01,0.008l-0.002,0.002l-0.025,0.02
		l-0.001,0.001l-0.006,0.005l-0.001,0.001l-0.018,0.014l0,0l-0.003,0.002l-0.002,0.002l-0.001,0.001h0l-0.001,0.001l-0.002,0.001
		l-0.002,0.001l0,0l0,0c-10.121,8.097-16.013,20.356-16.013,33.317v13.008c-0.006,5.891,4.765,10.672,10.656,10.678
		c5.891,0.006,10.672-4.764,10.678-10.656c0-0.007,0-0.015,0-0.022v-13.008c-0.015-6.484,2.934-12.62,8.007-16.659l61.686-49.348
		c23.427-18.651,37.045-46.985,36.974-76.93v-35.271C170.667,156.408,165.891,151.632,160,151.632L160,151.632z"/>
</g>
<path style="fill:#C9D3DC;" d="M234.667,0L234.667,0c35.346,0,64,28.654,64,64v362.667l0,0h-128l0,0V64
	C170.667,28.654,199.32,0,234.667,0L234.667,0L234.667,0z"/>
<path style="fill:#E1E7ED;" d="M234.662,63.997L234.662,63.997c23.563,0,42.665,19.103,42.665,42.667V256
	c0,23.564-19.102,42.667-42.665,42.667l0,0c-23.563,0-42.665-19.103-42.665-42.667V106.664
	C191.997,83.099,211.098,63.997,234.662,63.997z"/>
<g>
	<path style="fill:#00B34A;" d="M64,362.667h85.333c11.782,0,21.333,9.551,21.333,21.333v0v42.667l0,0H64
		c-11.782,0-21.333-9.551-21.333-21.333l0,0V384C42.667,372.218,52.218,362.667,64,362.667C64,362.667,64,362.667,64,362.667
		L64,362.667z"/>
	<path style="fill:#00B34A;" d="M405.333,426.667H298.667l0,0V384c0-11.782,9.551-21.333,21.333-21.333h0h85.333
		c11.782,0,21.333,9.551,21.333,21.333v0v21.333C426.667,417.115,417.115,426.667,405.333,426.667L405.333,426.667L405.333,426.667z
		"/>
</g>
<path style="fill:#0F3860;" d="M150.444,433.413l7.111,21.333c2.904,8.711,11.056,14.587,20.239,14.587h113.745
	c9.183,0,17.335-5.876,20.239-14.587l7.111-21.333c3.726-11.177-2.315-23.259-13.492-26.985c-2.175-0.725-4.453-1.095-6.746-1.095
	H170.683c-11.782,0-21.333,9.551-21.333,21.333C149.35,428.96,149.719,431.238,150.444,433.413L150.444,433.413z"/>
<g>
	<path style="fill:#022D53;" d="M96.004,426.667h21.333c5.891,0,10.667,4.776,10.667,10.667l0,0c0,5.891-4.776,10.667-10.667,10.667
		H96.004c-5.891,0-10.667-4.776-10.667-10.667l0,0C85.337,431.442,90.112,426.667,96.004,426.667z"/>
	<path style="fill:#022D53;" d="M352.004,426.667h21.333c5.891,0,10.667,4.776,10.667,10.667l0,0
		c0,5.891-4.776,10.667-10.667,10.667h-21.333c-5.891,0-10.667-4.776-10.667-10.667l0,0
		C341.337,431.442,346.112,426.667,352.004,426.667z"/>
	<path style="fill:#022D53;" d="M181.334,426.667H288c5.891,0,10.667,4.776,10.667,10.667l0,0c0,5.891-4.776,10.667-10.667,10.667
		H181.334c-5.891,0-10.667-4.776-10.667-10.667l0,0C170.667,431.442,175.442,426.667,181.334,426.667z"/>
</g>
<path style="fill:#385E7F;" d="M320,426.667H149.333v-85.333c0-11.782,9.551-21.333,21.333-21.333h128
	c11.782,0,21.333,9.551,21.333,21.333l0,0V426.667z"/>
<path style="fill:#83FF36;" d="M234.67,277.337h0.001c11.782,0,21.333,9.551,21.333,21.333v128.004
	c0,11.782-9.551,21.333-21.333,21.333h-0.001c-11.782,0-21.333-9.551-21.333-21.333V298.67
	C213.337,286.888,222.888,277.337,234.67,277.337z"/>
<path style="fill:#B2FF82;" d="M234.67,383.997h0.001c11.782,0,21.333,9.551,21.333,21.333v21.334
	c0,11.782-9.551,21.333-21.333,21.333h-0.001c-11.782,0-21.333-9.551-21.333-21.333V405.33
	C213.337,393.548,222.888,383.997,234.67,383.997z"/>
<path style="fill:#0F3860;" d="M234.667,64l-0.063,0h-0.021l-0.043,0l-0.023,0l-0.044,0l-0.02,0l-0.057,0l-0.01,0l-0.059,0l-0.018,0
	l-0.046,0l-0.02,0l-0.047,0l-0.019,0l-0.061,0.001h-0.003l-0.064,0.001l-0.015,0l-0.048,0.001l-0.02,0l-0.046,0.001l-0.017,0
	l-0.128,0.002l-0.016,0l-0.047,0.001l-0.021,0l-0.045,0.001l-0.019,0l-0.056,0.001l-0.011,0l-0.058,0.002l-0.021,0.001l-0.043,0.001
	l-0.021,0.001l-0.046,0.001l-0.017,0.001l-0.063,0.002h-0.001l-0.063,0.002l-0.017,0.001l-0.047,0.002l-0.02,0.001l-0.047,0.002
	l-0.017,0.001l-0.062,0.002h-0.001l-0.064,0.002l-0.015,0.001l-0.049,0.002l-0.019,0.001l-0.047,0.002l-0.017,0.001l-0.062,0.003
	l-0.002,0l-0.063,0.003l-0.018,0.001l-0.045,0.002l-0.022,0.001l-0.044,0.002l-0.019,0.001l-0.059,0.003l-0.004,0l-0.063,0.003
	l-0.017,0.001l-0.046,0.002l-0.02,0.001l-0.047,0.003l-0.016,0.001l-0.063,0.004h0l-0.065,0.004l-0.01,0.001l-0.053,0.003
	l-0.015,0.001l-0.051,0.003l-0.014,0.001l-0.127,0.008l-0.015,0.001l-0.049,0.003l-0.019,0.001l-0.047,0.003l-0.016,0.001
	l-0.128,0.009l-0.011,0.001l-0.05,0.004l-0.02,0.001l-0.047,0.003l-0.016,0.001l-0.128,0.01l-0.009,0.001l-0.055,0.004l-0.013,0.001
	l-0.056,0.004l-0.008,0.001l-0.131,0.011l-0.008,0.001l-0.055,0.005l-0.015,0.001l-0.049,0.004l-0.016,0.001l-0.126,0.011
	l-0.013,0.001l-0.05,0.005l-0.016,0.001l-0.049,0.005l-0.014,0.001l-0.128,0.012l-0.01,0.001l-0.052,0.005l-0.017,0.002
	l-0.048,0.005l-0.016,0.002l-0.125,0.013l-0.015,0.002l-0.047,0.005l-0.02,0.002l-0.044,0.005l-0.018,0.002l-0.057,0.006
	l-0.005,0.001l-0.063,0.007l-0.013,0.001l-0.05,0.006l-0.015,0.002l-0.05,0.006l-0.013,0.002l-0.128,0.015l-0.006,0.001
	l-0.057,0.007l-0.011,0.001l-0.057,0.007l-0.006,0.001c-0.066,0.008-0.129,0.016-0.195,0.024l-0.009,0.001l-0.056,0.007
	l-0.008,0.001l-0.13,0.017l-0.001,0l-0.063,0.008l-0.008,0.001l-0.06,0.008l-0.004,0c-0.065,0.009-0.13,0.017-0.195,0.026
	l-0.008,0.001l-0.06,0.008l-0.004,0.001c-0.065,0.009-0.131,0.018-0.196,0.028l-0.006,0.001l-0.062,0.009l-0.003,0
	c-0.065,0.009-0.13,0.019-0.195,0.029l-0.007,0.001l-0.06,0.009l-0.004,0.001c-0.066,0.01-0.131,0.02-0.197,0.03l-0.002,0
	c-0.088,0.014-0.174,0.027-0.263,0.042l-0.002,0c-0.088,0.014-0.173,0.029-0.261,0.043l-0.003,0
	c-0.088,0.015-0.173,0.029-0.26,0.045l-0.003,0.001c-0.175,0.031-0.348,0.062-0.523,0.095l-0.001,0
	c-0.175,0.033-0.348,0.067-0.522,0.102l0,0c-0.087,0.017-0.173,0.035-0.26,0.053l-0.001,0
	c-14.873,3.121-26.971,13.905-31.774,28.323c-1.854,5.592,1.176,11.627,6.768,13.481c5.592,1.854,11.627-1.176,13.481-6.768
	c2.895-8.726,11.061-14.611,20.255-14.596c0.124,0,0.247-0.002,0.37-0.006c0.122,0.008,0.244,0.014,0.367,0.018
	c9.185,0.294,17.142,6.452,19.732,15.27c1.666,5.65,7.598,8.88,13.248,7.213c5.649-1.666,8.879-7.595,7.215-13.244
	c-1.232-4.176-3.098-8.138-5.534-11.746l0,0c-0.037-0.055-0.074-0.11-0.112-0.165l-0.005-0.007l-0.023-0.033l-0.009-0.014
	l-0.023-0.034l-0.006-0.009l-0.077-0.112l-0.008-0.012l-0.023-0.033l-0.008-0.012l-0.023-0.034l-0.009-0.013
	c-0.024-0.034-0.048-0.069-0.072-0.103l-0.012-0.017l-0.021-0.03l-0.012-0.016l-0.021-0.03l-0.012-0.017l-0.021-0.029l-0.011-0.015
	l-0.038-0.054l-0.013-0.019l-0.02-0.028l-0.013-0.018l-0.02-0.028l-0.015-0.022l-0.018-0.025l-0.018-0.025l-0.03-0.042l-0.016-0.023
	l-0.017-0.024l-0.017-0.023l-0.018-0.025l-0.016-0.023l-0.017-0.024l-0.032-0.044l-0.012-0.017l-0.023-0.032l-0.014-0.019
	l-0.02-0.027l-0.016-0.022l-0.021-0.03l-0.012-0.016l-0.035-0.047l-0.002-0.003l-0.033-0.045l-0.008-0.011l-0.027-0.036
	l-0.011-0.015l-0.029-0.039l-0.006-0.007l-0.036-0.049l-0.002-0.003l-0.033-0.045l-0.01-0.013l-0.024-0.033l-0.013-0.017
	l-0.026-0.035l-0.009-0.012l-0.036-0.048l-0.001-0.001l-0.035-0.047l-0.008-0.011l-0.029-0.038l-0.009-0.012l-0.03-0.04
	l-0.006-0.008l-0.075-0.098l-0.005-0.006l-0.032-0.041l-0.007-0.01c-0.038-0.05-0.076-0.098-0.114-0.148v0l-0.036-0.047
	l-0.005-0.007c-0.051-0.065-0.103-0.132-0.154-0.197l-0.003-0.004c-0.052-0.066-0.105-0.133-0.157-0.199l-0.001-0.001
	c-6.909-8.706-16.946-14.368-27.971-15.78l-0.005-0.001c-0.088-0.011-0.175-0.022-0.263-0.033l-0.002,0
	c-0.088-0.011-0.176-0.021-0.264-0.031l-0.006-0.001l-0.061-0.007l-0.005-0.001l-0.132-0.015l0,0l-0.061-0.007l-0.014-0.002
	l-0.051-0.005l-0.013-0.001l-0.127-0.013l-0.009-0.001l-0.052-0.005l-0.018-0.002l-0.048-0.005l-0.015-0.001l-0.061-0.006l-0.001,0
	l-0.066-0.006l-0.005,0l-0.058-0.006l-0.013-0.001l-0.053-0.005l-0.012-0.001l-0.06-0.006l-0.003,0l-0.064-0.006l-0.011-0.001
	l-0.05-0.005l-0.02-0.002l-0.044-0.004l-0.019-0.002l-0.051-0.004l-0.011-0.001l-0.064-0.005l-0.007-0.001l-0.053-0.004
	l-0.021-0.002l-0.043-0.004l-0.02-0.002l-0.05-0.004l-0.011-0.001l-0.063-0.005l-0.016-0.001l-0.046-0.003l-0.023-0.002
	l-0.042-0.003l-0.019-0.001l-0.048-0.003l-0.017-0.001l-0.061-0.004l-0.017-0.001l-0.045-0.003l-0.025-0.002l-0.039-0.003
	l-0.025-0.002l-0.038-0.003l-0.024-0.002l-0.058-0.004l-0.023-0.002l-0.039-0.002l-0.028-0.002l-0.033-0.002l-0.029-0.002
	l-0.036-0.002l-0.026-0.002l-0.059-0.003l-0.022-0.001l-0.038-0.002l-0.03-0.002l-0.033-0.002l-0.03-0.002l-0.034-0.002
	l-0.028-0.002l-0.049-0.003l-0.04-0.002l-0.028-0.001l-0.035-0.002l-0.026-0.001l-0.034-0.002l-0.026-0.001l-0.13-0.006l-0.02-0.001
	l-0.037-0.002l-0.024-0.001l-0.038-0.002l-0.019-0.001l-0.138-0.006l-0.016-0.001l-0.042-0.002l-0.018-0.001l-0.041-0.002
	l-0.018-0.001l-0.097-0.003c-0.121-0.004-0.242-0.006-0.362-0.006c-0.121,0-0.242,0.002-0.363,0.006
	C235.151,64.008,234.91,64,234.667,64L234.667,64z"/>
<g>
	<path style="fill:#0C996A;" d="M74.664,362.667h63.996c5.891,0,10.667,4.776,10.667,10.667l0,0c0,5.891-4.776,10.667-10.667,10.667
		H74.664c-5.891,0-10.667-4.776-10.667-10.667l0,0C63.997,367.442,68.772,362.667,74.664,362.667z"/>
	<path style="fill:#0C996A;" d="M330.664,362.667h63.996c5.891,0,10.667,4.776,10.667,10.667l0,0
		c0,5.891-4.776,10.667-10.667,10.667h-63.996c-5.891,0-10.667-4.776-10.667-10.667l0,0
		C319.997,367.442,324.772,362.667,330.664,362.667z"/>
</g>
<g>
	<path style="fill:#2D5578;" d="M170.67,319.997h0.001c11.782,0,21.333,9.551,21.333,21.333v64.004
		c0,11.782-9.551,21.333-21.333,21.333h-0.001c-11.782,0-21.333-9.551-21.333-21.333V341.33
		C149.337,329.548,158.888,319.997,170.67,319.997z"/>
	<path style="fill:#2D5578;" d="M298.67,319.997L298.67,319.997c11.783,0,21.334,9.551,21.334,21.333v64.004
		c0,11.782-9.551,21.333-21.333,21.333h-0.001c-11.782,0-21.333-9.551-21.333-21.333V341.33
		C277.337,329.548,286.888,319.997,298.67,319.997z"/>
</g>
<path style="fill:#F0F3F6;" d="M234.67,127.997h0.001c11.782,0,21.333,9.551,21.333,21.333v64.004
	c0,11.782-9.551,21.333-21.333,21.333h-0.001c-11.782,0-21.333-9.551-21.333-21.333V149.33
	C213.337,137.548,222.888,127.997,234.67,127.997z"/>
<path style="fill:#E1E7ED;" d="M202.664,21.334h21.333c5.891,0,10.667,4.776,10.667,10.666l0,0c0,5.891-4.776,10.667-10.667,10.667
	h-21.333c-5.891,0-10.667-4.776-10.667-10.667l0,0C191.997,26.109,196.772,21.334,202.664,21.334z"/>
<g>
</g>
<g>
</g>
<g>
</g>
<g>
</g>
<g>
</g>
<g>
</g>
<g>
</g>
<g>
</g>
<g>
</g>
<g>
</g>
<g>
</g>
<g>
</g>
<g>
</g>
<g>
</g>
<g>
</g>
</svg>
